<?xml version="1.0" standalone="no" ?>
<!DOCTYPE svg PUBLIC "-//W3C//DTD SVG 1.1//EN" "http://www.w3.org/Graphics/SVG/1.1/DTD/svg11.dtd">
<svg width="400px" height="400px" xmlns="http://www.w3.org/2000/svg" version="1.1" >
	<polygon points="0,400 400,400 400,0 0,0 " fill="transparent" stroke-width="1" stroke="rgb(255,0,0)" />
	<polyline points="" fill="transparent" stroke-width="0.5" stroke="rgb(0,0,255)" />
	<polyline points="" fill="transparent" stroke-width="0.5" stroke="rgb(0,0,255)" />
	<polyline points="" fill="transparent" stroke-width="0.5" stroke="rgb(0,0,255)" />
	<polyline points="" fill="transparent" stroke-width="0.5" stroke="rgb(0,0,255)" />
	<polyline points="" fill="transparent" stroke-width="0.5" stroke="rgb(0,0,255)" />
	<polyline points="" fill="transparent" stroke-width="0.5" stroke="rgb(0,0,255)" />
	<rect x="0" y="355" width="4" height="45" fill="rgb(0,0,0)" />
	<rect x="4" y="355" width="10" height="45" fill="rgb(255,255,0)" />
	<rect x="4" y="308" width="10" height="47" fill="rgb(128,0,128)" />
	<rect x="0" y="308" width="4" height="47" fill="rgb(255,255,0)" />
	<polyline points="" fill="transparent" stroke-width="0.5" stroke="rgb(0,0,255)" />
	<polyline points="" fill="transparent" stroke-width="0.5" stroke="rgb(0,0,255)" />
	<rect x="14" y="377" width="18" height="23" fill="rgb(165,42,42)" />
	<rect x="32" y="377" width="15" height="23" fill="rgb(0,0,255)" />
	<rect x="32" y="308" width="15" height="69" fill="rgb(0,0,255)" />
	<rect x="14" y="308" width="18" height="69" fill="rgb(192,192,192)" />
	<polyline points="" fill="transparent" stroke-width="0.5" stroke="rgb(0,0,255)" />
	<polyline points="" fill="transparent" stroke-width="0.5" stroke="rgb(0,0,255)" />
	<rect x="14" y="234" width="22" height="74" fill="rgb(255,165,0)" />
	<rect x="36" y="234" width="11" height="74" fill="rgb(0,0,255)" />
	<rect x="36" y="206" width="11" height="28" fill="rgb(0,128,0)" />
	<rect x="14" y="206" width="22" height="28" fill="rgb(255,255,0)" />
	<polyline points="" fill="transparent" stroke-width="0.5" stroke="rgb(0,0,255)" />
	<polyline points="" fill="transparent" stroke-width="0.5" stroke="rgb(0,0,255)" />
	<rect x="0" y="231" width="10" height="77" fill="rgb(0,128,0)" />
	<rect x="10" y="231" width="4" height="77" fill="rgb(128,0,128)" />
	<rect x="10" y="206" width="4" height="25" fill="rgb(255,255,255)" />
	<rect x="0" y="206" width="10" height="25" fill="rgb(165,42,42)" />
	<polyline points="" fill="transparent" stroke-width="0.5" stroke="rgb(0,0,255)" />
	<polyline points="" fill="transparent" stroke-width="0.5" stroke="rgb(0,0,255)" />
	<polyline points="" fill="transparent" stroke-width="0.5" stroke="rgb(0,0,255)" />
	<polyline points="" fill="transparent" stroke-width="0.5" stroke="rgb(0,0,255)" />
	<rect x="47" y="311" width="52" height="89" fill="rgb(255,0,0)" />
	<rect x="99" y="311" width="24" height="89" fill="rgb(255,0,0)" />
	<rect x="99" y="278" width="24" height="33" fill="rgb(128,0,128)" />
	<rect x="47" y="278" width="52" height="33" fill="rgb(255,255,255)" />
	<polyline points="" fill="transparent" stroke-width="0.5" stroke="rgb(0,0,255)" />
	<polyline points="" fill="transparent" stroke-width="0.5" stroke="rgb(0,0,255)" />
	<rect x="123" y="364" width="22" height="36" fill="rgb(0,0,0)" />
	<rect x="145" y="364" width="21" height="36" fill="rgb(255,165,0)" />
	<rect x="145" y="278" width="21" height="86" fill="rgb(0,0,0)" />
	<rect x="123" y="278" width="22" height="86" fill="rgb(128,0,128)" />
	<polyline points="" fill="transparent" stroke-width="0.5" stroke="rgb(0,0,255)" />
	<polyline points="" fill="transparent" stroke-width="0.5" stroke="rgb(0,0,255)" />
	<rect x="123" y="249" width="25" height="29" fill="rgb(255,165,0)" />
	<rect x="148" y="249" width="18" height="29" fill="rgb(255,255,0)" />
	<rect x="148" y="206" width="18" height="43" fill="rgb(255,0,0)" />
	<rect x="123" y="206" width="25" height="43" fill="rgb(255,165,0)" />
	<polyline points="" fill="transparent" stroke-width="0.5" stroke="rgb(0,0,255)" />
	<polyline points="" fill="transparent" stroke-width="0.5" stroke="rgb(0,0,255)" />
	<rect x="47" y="222" width="26" height="56" fill="rgb(255,0,0)" />
	<rect x="73" y="222" width="50" height="56" fill="rgb(255,255,0)" />
	<rect x="73" y="206" width="50" height="16" fill="rgb(128,0,128)" />
	<rect x="47" y="206" width="26" height="16" fill="rgb(0,128,0)" />
	<polyline points="" fill="transparent" stroke-width="0.5" stroke="rgb(0,0,255)" />
	<polyline points="" fill="transparent" stroke-width="0.5" stroke="rgb(0,0,255)" />
	<polyline points="" fill="transparent" stroke-width="0.5" stroke="rgb(0,0,255)" />
	<polyline points="" fill="transparent" stroke-width="0.5" stroke="rgb(0,0,255)" />
	<rect x="47" y="194" width="21" height="12" fill="rgb(255,255,255)" />
	<rect x="68" y="194" width="64" height="12" fill="rgb(0,128,0)" />
	<rect x="68" y="171" width="64" height="23" fill="rgb(0,0,0)" />
	<rect x="47" y="171" width="21" height="23" fill="rgb(255,0,0)" />
	<polyline points="" fill="transparent" stroke-width="0.5" stroke="rgb(0,0,255)" />
	<polyline points="" fill="transparent" stroke-width="0.5" stroke="rgb(0,0,255)" />
	<rect x="132" y="185" width="23" height="21" fill="rgb(255,0,0)" />
	<rect x="155" y="185" width="11" height="21" fill="rgb(255,0,0)" />
	<rect x="155" y="171" width="11" height="14" fill="rgb(255,0,0)" />
	<rect x="132" y="171" width="23" height="14" fill="rgb(255,255,0)" />
	<polyline points="" fill="transparent" stroke-width="0.5" stroke="rgb(0,0,255)" />
	<polyline points="" fill="transparent" stroke-width="0.5" stroke="rgb(0,0,255)" />
	<rect x="132" y="163" width="14" height="8" fill="rgb(0,0,255)" />
	<rect x="146" y="163" width="20" height="8" fill="rgb(255,165,0)" />
	<rect x="146" y="131" width="20" height="32" fill="rgb(0,0,255)" />
	<rect x="132" y="131" width="14" height="32" fill="rgb(255,255,0)" />
	<polyline points="" fill="transparent" stroke-width="0.5" stroke="rgb(0,0,255)" />
	<polyline points="" fill="transparent" stroke-width="0.5" stroke="rgb(0,0,255)" />
	<rect x="47" y="155" width="44" height="16" fill="rgb(0,128,0)" />
	<rect x="91" y="155" width="41" height="16" fill="rgb(255,0,0)" />
	<rect x="91" y="131" width="41" height="24" fill="rgb(192,192,192)" />
	<rect x="47" y="131" width="44" height="24" fill="rgb(255,255,0)" />
	<polyline points="" fill="transparent" stroke-width="0.5" stroke="rgb(0,0,255)" />
	<polyline points="" fill="transparent" stroke-width="0.5" stroke="rgb(0,0,255)" />
	<polyline points="" fill="transparent" stroke-width="0.5" stroke="rgb(0,0,255)" />
	<polyline points="" fill="transparent" stroke-width="0.5" stroke="rgb(0,0,255)" />
	<rect x="0" y="186" width="23" height="20" fill="rgb(0,128,0)" />
	<rect x="23" y="186" width="11" height="20" fill="rgb(128,0,128)" />
	<rect x="23" y="162" width="11" height="24" fill="rgb(0,0,255)" />
	<rect x="0" y="162" width="23" height="24" fill="rgb(0,0,0)" />
	<polyline points="" fill="transparent" stroke-width="0.5" stroke="rgb(0,0,255)" />
	<polyline points="" fill="transparent" stroke-width="0.5" stroke="rgb(0,0,255)" />
	<rect x="34" y="186" width="10" height="20" fill="rgb(165,42,42)" />
	<rect x="44" y="186" width="3" height="20" fill="rgb(0,128,0)" />
	<rect x="44" y="162" width="3" height="24" fill="rgb(165,42,42)" />
	<rect x="34" y="162" width="10" height="24" fill="rgb(255,255,255)" />
	<polyline points="" fill="transparent" stroke-width="0.5" stroke="rgb(0,0,255)" />
	<polyline points="" fill="transparent" stroke-width="0.5" stroke="rgb(0,0,255)" />
	<rect x="34" y="150" width="8" height="12" fill="rgb(255,255,255)" />
	<rect x="42" y="150" width="5" height="12" fill="rgb(165,42,42)" />
	<rect x="42" y="131" width="5" height="19" fill="rgb(128,0,128)" />
	<rect x="34" y="131" width="8" height="19" fill="rgb(255,255,0)" />
	<polyline points="" fill="transparent" stroke-width="0.5" stroke="rgb(0,0,255)" />
	<polyline points="" fill="transparent" stroke-width="0.5" stroke="rgb(0,0,255)" />
	<rect x="0" y="156" width="15" height="6" fill="rgb(255,0,0)" />
	<rect x="15" y="156" width="19" height="6" fill="rgb(192,192,192)" />
	<rect x="15" y="131" width="19" height="25" fill="rgb(255,0,0)" />
	<rect x="0" y="131" width="15" height="25" fill="rgb(255,255,255)" />
	<polyline points="" fill="transparent" stroke-width="0.5" stroke="rgb(0,0,255)" />
	<polyline points="" fill="transparent" stroke-width="0.5" stroke="rgb(0,0,255)" />
	<polyline points="" fill="transparent" stroke-width="0.5" stroke="rgb(0,0,255)" />
	<polyline points="" fill="transparent" stroke-width="0.5" stroke="rgb(0,0,255)" />
	<polyline points="" fill="transparent" stroke-width="0.5" stroke="rgb(0,0,255)" />
	<polyline points="" fill="transparent" stroke-width="0.5" stroke="rgb(0,0,255)" />
	<rect x="166" y="373" width="14" height="27" fill="rgb(255,0,0)" />
	<rect x="180" y="373" width="5" height="27" fill="rgb(255,255,0)" />
	<rect x="180" y="309" width="5" height="64" fill="rgb(0,0,255)" />
	<rect x="166" y="309" width="14" height="64" fill="rgb(255,255,255)" />
	<polyline points="" fill="transparent" stroke-width="0.5" stroke="rgb(0,0,255)" />
	<polyline points="" fill="transparent" stroke-width="0.5" stroke="rgb(0,0,255)" />
	<rect x="185" y="349" width="18" height="51" fill="rgb(192,192,192)" />
	<rect x="203" y="349" width="17" height="51" fill="rgb(255,255,255)" />
	<rect x="203" y="309" width="17" height="40" fill="rgb(255,255,255)" />
	<rect x="185" y="309" width="18" height="40" fill="rgb(128,0,128)" />
	<polyline points="" fill="transparent" stroke-width="0.5" stroke="rgb(0,0,255)" />
	<polyline points="" fill="transparent" stroke-width="0.5" stroke="rgb(0,0,255)" />
	<rect x="185" y="284" width="20" height="25" fill="rgb(165,42,42)" />
	<rect x="205" y="284" width="15" height="25" fill="rgb(255,0,0)" />
	<rect x="205" y="189" width="15" height="95" fill="rgb(255,165,0)" />
	<rect x="185" y="189" width="20" height="95" fill="rgb(0,128,0)" />
	<polyline points="" fill="transparent" stroke-width="0.5" stroke="rgb(0,0,255)" />
	<polyline points="" fill="transparent" stroke-width="0.5" stroke="rgb(0,0,255)" />
	<rect x="166" y="234" width="13" height="75" fill="rgb(0,0,0)" />
	<rect x="179" y="234" width="6" height="75" fill="rgb(0,0,0)" />
	<rect x="179" y="189" width="6" height="45" fill="rgb(192,192,192)" />
	<rect x="166" y="189" width="13" height="45" fill="rgb(255,165,0)" />
	<polyline points="" fill="transparent" stroke-width="0.5" stroke="rgb(0,0,255)" />
	<polyline points="" fill="transparent" stroke-width="0.5" stroke="rgb(0,0,255)" />
	<polyline points="" fill="transparent" stroke-width="0.5" stroke="rgb(0,0,255)" />
	<polyline points="" fill="transparent" stroke-width="0.5" stroke="rgb(0,0,255)" />
	<rect x="220" y="387" width="12" height="13" fill="rgb(255,255,255)" />
	<rect x="232" y="387" width="27" height="13" fill="rgb(128,0,128)" />
	<rect x="232" y="345" width="27" height="42" fill="rgb(255,255,255)" />
	<rect x="220" y="345" width="12" height="42" fill="rgb(0,0,0)" />
	<polyline points="" fill="transparent" stroke-width="0.5" stroke="rgb(0,0,255)" />
	<polyline points="" fill="transparent" stroke-width="0.5" stroke="rgb(0,0,255)" />
	<rect x="259" y="371" width="83" height="29" fill="rgb(255,255,255)" />
	<rect x="342" y="371" width="58" height="29" fill="rgb(255,255,0)" />
	<rect x="342" y="345" width="58" height="26" fill="rgb(255,165,0)" />
	<rect x="259" y="345" width="83" height="26" fill="rgb(255,0,0)" />
	<polyline points="" fill="transparent" stroke-width="0.5" stroke="rgb(0,0,255)" />
	<polyline points="" fill="transparent" stroke-width="0.5" stroke="rgb(0,0,255)" />
	<rect x="259" y="222" width="32" height="123" fill="rgb(128,0,128)" />
	<rect x="291" y="222" width="109" height="123" fill="rgb(255,255,255)" />
	<rect x="291" y="189" width="109" height="33" fill="rgb(0,0,255)" />
	<rect x="259" y="189" width="32" height="33" fill="rgb(192,192,192)" />
	<polyline points="" fill="transparent" stroke-width="0.5" stroke="rgb(0,0,255)" />
	<polyline points="" fill="transparent" stroke-width="0.5" stroke="rgb(0,0,255)" />
	<rect x="220" y="255" width="11" height="90" fill="rgb(0,128,0)" />
	<rect x="231" y="255" width="28" height="90" fill="rgb(192,192,192)" />
	<rect x="231" y="189" width="28" height="66" fill="rgb(0,128,0)" />
	<rect x="220" y="189" width="11" height="66" fill="rgb(192,192,192)" />
	<polyline points="" fill="transparent" stroke-width="0.5" stroke="rgb(0,0,255)" />
	<polyline points="" fill="transparent" stroke-width="0.5" stroke="rgb(0,0,255)" />
	<polyline points="" fill="transparent" stroke-width="0.5" stroke="rgb(0,0,255)" />
	<polyline points="" fill="transparent" stroke-width="0.5" stroke="rgb(0,0,255)" />
	<rect x="220" y="187" width="26" height="2" fill="rgb(128,0,128)" />
	<rect x="246" y="187" width="40" height="2" fill="rgb(192,192,192)" />
	<rect x="246" y="176" width="40" height="11" fill="rgb(255,255,255)" />
	<rect x="220" y="176" width="26" height="11" fill="rgb(128,0,128)" />
	<polyline points="" fill="transparent" stroke-width="0.5" stroke="rgb(0,0,255)" />
	<polyline points="" fill="transparent" stroke-width="0.5" stroke="rgb(0,0,255)" />
	<rect x="286" y="184" width="58" height="5" fill="rgb(255,0,0)" />
	<rect x="344" y="184" width="56" height="5" fill="rgb(255,255,0)" />
	<rect x="344" y="176" width="56" height="8" fill="rgb(255,0,0)" />
	<rect x="286" y="176" width="58" height="8" fill="rgb(0,128,0)" />
	<polyline points="" fill="transparent" stroke-width="0.5" stroke="rgb(0,0,255)" />
	<polyline points="" fill="transparent" stroke-width="0.5" stroke="rgb(0,0,255)" />
	<rect x="286" y="158" width="69" height="18" fill="rgb(0,0,0)" />
	<rect x="355" y="158" width="45" height="18" fill="rgb(165,42,42)" />
	<rect x="355" y="131" width="45" height="27" fill="rgb(255,255,0)" />
	<rect x="286" y="131" width="69" height="27" fill="rgb(0,0,0)" />
	<polyline points="" fill="transparent" stroke-width="0.5" stroke="rgb(0,0,255)" />
	<polyline points="" fill="transparent" stroke-width="0.5" stroke="rgb(0,0,255)" />
	<rect x="220" y="141" width="28" height="35" fill="rgb(0,128,0)" />
	<rect x="248" y="141" width="38" height="35" fill="rgb(255,255,0)" />
	<rect x="248" y="131" width="38" height="10" fill="rgb(192,192,192)" />
	<rect x="220" y="131" width="28" height="10" fill="rgb(0,128,0)" />
	<polyline points="" fill="transparent" stroke-width="0.5" stroke="rgb(0,0,255)" />
	<polyline points="" fill="transparent" stroke-width="0.5" stroke="rgb(0,0,255)" />
	<polyline points="" fill="transparent" stroke-width="0.5" stroke="rgb(0,0,255)" />
	<polyline points="" fill="transparent" stroke-width="0.5" stroke="rgb(0,0,255)" />
	<rect x="166" y="169" width="13" height="20" fill="rgb(255,165,0)" />
	<rect x="179" y="169" width="10" height="20" fill="rgb(255,255,0)" />
	<rect x="179" y="145" width="10" height="24" fill="rgb(255,255,0)" />
	<rect x="166" y="145" width="13" height="24" fill="rgb(0,0,255)" />
	<polyline points="" fill="transparent" stroke-width="0.5" stroke="rgb(0,0,255)" />
	<polyline points="" fill="transparent" stroke-width="0.5" stroke="rgb(0,0,255)" />
	<rect x="189" y="170" width="7" height="19" fill="rgb(255,0,0)" />
	<rect x="196" y="170" width="24" height="19" fill="rgb(165,42,42)" />
	<rect x="196" y="145" width="24" height="25" fill="rgb(128,0,128)" />
	<rect x="189" y="145" width="7" height="25" fill="rgb(0,0,255)" />
	<polyline points="" fill="transparent" stroke-width="0.5" stroke="rgb(0,0,255)" />
	<polyline points="" fill="transparent" stroke-width="0.5" stroke="rgb(0,0,255)" />
	<rect x="189" y="142" width="18" height="3" fill="rgb(255,165,0)" />
	<rect x="207" y="142" width="13" height="3" fill="rgb(255,0,0)" />
	<rect x="207" y="131" width="13" height="11" fill="rgb(165,42,42)" />
	<rect x="189" y="131" width="18" height="11" fill="rgb(165,42,42)" />
	<polyline points="" fill="transparent" stroke-width="0.5" stroke="rgb(0,0,255)" />
	<polyline points="" fill="transparent" stroke-width="0.5" stroke="rgb(0,0,255)" />
	<rect x="166" y="142" width="11" height="3" fill="rgb(0,0,255)" />
	<rect x="177" y="142" width="12" height="3" fill="rgb(0,128,0)" />
	<rect x="177" y="131" width="12" height="11" fill="rgb(192,192,192)" />
	<rect x="166" y="131" width="11" height="11" fill="rgb(165,42,42)" />
	<polyline points="" fill="transparent" stroke-width="0.5" stroke="rgb(0,0,255)" />
	<polyline points="" fill="transparent" stroke-width="0.5" stroke="rgb(0,0,255)" />
	<polyline points="" fill="transparent" stroke-width="0.5" stroke="rgb(0,0,255)" />
	<polyline points="" fill="transparent" stroke-width="0.5" stroke="rgb(0,0,255)" />
	<polyline points="" fill="transparent" stroke-width="0.5" stroke="rgb(0,0,255)" />
	<polyline points="" fill="transparent" stroke-width="0.5" stroke="rgb(0,0,255)" />
	<rect x="166" y="123" width="51" height="8" fill="rgb(255,165,0)" />
	<rect x="217" y="123" width="22" height="8" fill="rgb(255,0,0)" />
	<rect x="217" y="105" width="22" height="18" fill="rgb(128,0,128)" />
	<rect x="166" y="105" width="51" height="18" fill="rgb(128,0,128)" />
	<polyline points="" fill="transparent" stroke-width="0.5" stroke="rgb(0,0,255)" />
	<polyline points="" fill="transparent" stroke-width="0.5" stroke="rgb(0,0,255)" />
	<rect x="239" y="121" width="19" height="10" fill="rgb(192,192,192)" />
	<rect x="258" y="121" width="17" height="10" fill="rgb(192,192,192)" />
	<rect x="258" y="105" width="17" height="16" fill="rgb(255,165,0)" />
	<rect x="239" y="105" width="19" height="16" fill="rgb(255,0,0)" />
	<polyline points="" fill="transparent" stroke-width="0.5" stroke="rgb(0,0,255)" />
	<polyline points="" fill="transparent" stroke-width="0.5" stroke="rgb(0,0,255)" />
	<rect x="239" y="83" width="7" height="22" fill="rgb(128,0,128)" />
	<rect x="246" y="83" width="29" height="22" fill="rgb(165,42,42)" />
	<rect x="246" y="51" width="29" height="32" fill="rgb(0,128,0)" />
	<rect x="239" y="51" width="7" height="32" fill="rgb(0,0,255)" />
	<polyline points="" fill="transparent" stroke-width="0.5" stroke="rgb(0,0,255)" />
	<polyline points="" fill="transparent" stroke-width="0.5" stroke="rgb(0,0,255)" />
	<rect x="166" y="68" width="48" height="37" fill="rgb(255,0,0)" />
	<rect x="214" y="68" width="25" height="37" fill="rgb(0,0,255)" />
	<rect x="214" y="51" width="25" height="17" fill="rgb(255,0,0)" />
	<rect x="166" y="51" width="48" height="17" fill="rgb(0,0,0)" />
	<polyline points="" fill="transparent" stroke-width="0.5" stroke="rgb(0,0,255)" />
	<polyline points="" fill="transparent" stroke-width="0.5" stroke="rgb(0,0,255)" />
	<polyline points="" fill="transparent" stroke-width="0.5" stroke="rgb(0,0,255)" />
	<polyline points="" fill="transparent" stroke-width="0.5" stroke="rgb(0,0,255)" />
	<rect x="275" y="111" width="22" height="20" fill="rgb(192,192,192)" />
	<rect x="297" y="111" width="65" height="20" fill="rgb(128,0,128)" />
	<rect x="297" y="79" width="65" height="32" fill="rgb(255,0,0)" />
	<rect x="275" y="79" width="22" height="32" fill="rgb(0,128,0)" />
	<polyline points="" fill="transparent" stroke-width="0.5" stroke="rgb(0,0,255)" />
	<polyline points="" fill="transparent" stroke-width="0.5" stroke="rgb(0,0,255)" />
	<rect x="362" y="99" width="12" height="32" fill="rgb(0,0,255)" />
	<rect x="374" y="99" width="26" height="32" fill="rgb(0,0,0)" />
	<rect x="374" y="79" width="26" height="20" fill="rgb(128,0,128)" />
	<rect x="362" y="79" width="12" height="20" fill="rgb(0,0,0)" />
	<polyline points="" fill="transparent" stroke-width="0.5" stroke="rgb(0,0,255)" />
	<polyline points="" fill="transparent" stroke-width="0.5" stroke="rgb(0,0,255)" />
	<rect x="362" y="66" width="13" height="13" fill="rgb(0,0,0)" />
	<rect x="375" y="66" width="25" height="13" fill="rgb(0,0,255)" />
	<rect x="375" y="51" width="25" height="15" fill="rgb(0,0,0)" />
	<rect x="362" y="51" width="13" height="15" fill="rgb(255,255,255)" />
	<polyline points="" fill="transparent" stroke-width="0.5" stroke="rgb(0,0,255)" />
	<polyline points="" fill="transparent" stroke-width="0.5" stroke="rgb(0,0,255)" />
	<rect x="275" y="61" width="41" height="18" fill="rgb(192,192,192)" />
	<rect x="316" y="61" width="46" height="18" fill="rgb(128,0,128)" />
	<rect x="316" y="51" width="46" height="10" fill="rgb(128,0,128)" />
	<rect x="275" y="51" width="41" height="10" fill="rgb(255,165,0)" />
	<polyline points="" fill="transparent" stroke-width="0.5" stroke="rgb(0,0,255)" />
	<polyline points="" fill="transparent" stroke-width="0.5" stroke="rgb(0,0,255)" />
	<polyline points="" fill="transparent" stroke-width="0.5" stroke="rgb(0,0,255)" />
	<polyline points="" fill="transparent" stroke-width="0.5" stroke="rgb(0,0,255)" />
	<rect x="275" y="32" width="25" height="19" fill="rgb(255,255,255)" />
	<rect x="300" y="32" width="62" height="19" fill="rgb(255,255,0)" />
	<rect x="300" y="22" width="62" height="10" fill="rgb(255,255,0)" />
	<rect x="275" y="22" width="25" height="10" fill="rgb(128,0,128)" />
	<polyline points="" fill="transparent" stroke-width="0.5" stroke="rgb(0,0,255)" />
	<polyline points="" fill="transparent" stroke-width="0.5" stroke="rgb(0,0,255)" />
	<rect x="362" y="45" width="16" height="6" fill="rgb(0,128,0)" />
	<rect x="378" y="45" width="22" height="6" fill="rgb(255,165,0)" />
	<rect x="378" y="22" width="22" height="23" fill="rgb(0,0,0)" />
	<rect x="362" y="22" width="16" height="23" fill="rgb(0,0,255)" />
	<polyline points="" fill="transparent" stroke-width="0.5" stroke="rgb(0,0,255)" />
	<polyline points="" fill="transparent" stroke-width="0.5" stroke="rgb(0,0,255)" />
	<rect x="362" y="12" width="23" height="10" fill="rgb(255,0,0)" />
	<rect x="385" y="12" width="15" height="10" fill="rgb(0,0,255)" />
	<rect x="385" y="0" width="15" height="12" fill="rgb(255,255,0)" />
	<rect x="362" y="0" width="23" height="12" fill="rgb(255,255,0)" />
	<polyline points="" fill="transparent" stroke-width="0.5" stroke="rgb(0,0,255)" />
	<polyline points="" fill="transparent" stroke-width="0.5" stroke="rgb(0,0,255)" />
	<rect x="275" y="13" width="23" height="9" fill="rgb(255,165,0)" />
	<rect x="298" y="13" width="64" height="9" fill="rgb(128,0,128)" />
	<rect x="298" y="0" width="64" height="13" fill="rgb(0,0,255)" />
	<rect x="275" y="0" width="23" height="13" fill="rgb(0,0,255)" />
	<polyline points="" fill="transparent" stroke-width="0.5" stroke="rgb(0,0,255)" />
	<polyline points="" fill="transparent" stroke-width="0.5" stroke="rgb(0,0,255)" />
	<polyline points="" fill="transparent" stroke-width="0.5" stroke="rgb(0,0,255)" />
	<polyline points="" fill="transparent" stroke-width="0.5" stroke="rgb(0,0,255)" />
	<rect x="166" y="27" width="60" height="24" fill="rgb(0,128,0)" />
	<rect x="226" y="27" width="16" height="24" fill="rgb(255,0,0)" />
	<rect x="226" y="20" width="16" height="7" fill="rgb(0,128,0)" />
	<rect x="166" y="20" width="60" height="7" fill="rgb(255,0,0)" />
	<polyline points="" fill="transparent" stroke-width="0.5" stroke="rgb(0,0,255)" />
	<polyline points="" fill="transparent" stroke-width="0.5" stroke="rgb(0,0,255)" />
	<rect x="242" y="37" width="19" height="14" fill="rgb(255,255,0)" />
	<rect x="261" y="37" width="14" height="14" fill="rgb(192,192,192)" />
	<rect x="261" y="20" width="14" height="17" fill="rgb(0,128,0)" />
	<rect x="242" y="20" width="19" height="17" fill="rgb(255,0,0)" />
	<polyline points="" fill="transparent" stroke-width="0.5" stroke="rgb(0,0,255)" />
	<polyline points="" fill="transparent" stroke-width="0.5" stroke="rgb(0,0,255)" />
	<rect x="242" y="12" width="13" height="8" fill="rgb(192,192,192)" />
	<rect x="255" y="12" width="20" height="8" fill="rgb(192,192,192)" />
	<rect x="255" y="0" width="20" height="12" fill="rgb(0,0,255)" />
	<rect x="242" y="0" width="13" height="12" fill="rgb(0,0,0)" />
	<polyline points="" fill="transparent" stroke-width="0.5" stroke="rgb(0,0,255)" />
	<polyline points="" fill="transparent" stroke-width="0.5" stroke="rgb(0,0,255)" />
	<rect x="166" y="9" width="31" height="11" fill="rgb(0,128,0)" />
	<rect x="197" y="9" width="45" height="11" fill="rgb(0,0,255)" />
	<rect x="197" y="0" width="45" height="9" fill="rgb(255,165,0)" />
	<rect x="166" y="0" width="31" height="9" fill="rgb(165,42,42)" />
	<polyline points="" fill="transparent" stroke-width="0.5" stroke="rgb(0,0,255)" />
	<polyline points="" fill="transparent" stroke-width="0.5" stroke="rgb(0,0,255)" />
	<polyline points="" fill="transparent" stroke-width="0.5" stroke="rgb(0,0,255)" />
	<polyline points="" fill="transparent" stroke-width="0.5" stroke="rgb(0,0,255)" />
	<polyline points="" fill="transparent" stroke-width="0.5" stroke="rgb(0,0,255)" />
	<polyline points="" fill="transparent" stroke-width="0.5" stroke="rgb(0,0,255)" />
	<rect x="0" y="106" width="55" height="25" fill="rgb(255,165,0)" />
	<rect x="55" y="106" width="28" height="25" fill="rgb(0,0,0)" />
	<rect x="55" y="89" width="28" height="17" fill="rgb(255,0,0)" />
	<rect x="0" y="89" width="55" height="17" fill="rgb(165,42,42)" />
	<polyline points="" fill="transparent" stroke-width="0.5" stroke="rgb(0,0,255)" />
	<polyline points="" fill="transparent" stroke-width="0.5" stroke="rgb(0,0,255)" />
	<rect x="83" y="115" width="20" height="16" fill="rgb(165,42,42)" />
	<rect x="103" y="115" width="14" height="16" fill="rgb(255,0,0)" />
	<rect x="103" y="89" width="14" height="26" fill="rgb(255,255,0)" />
	<rect x="83" y="89" width="20" height="26" fill="rgb(0,0,255)" />
	<polyline points="" fill="transparent" stroke-width="0.5" stroke="rgb(0,0,255)" />
	<polyline points="" fill="transparent" stroke-width="0.5" stroke="rgb(0,0,255)" />
	<rect x="83" y="78" width="20" height="11" fill="rgb(0,0,255)" />
	<rect x="103" y="78" width="14" height="11" fill="rgb(255,255,0)" />
	<rect x="103" y="51" width="14" height="27" fill="rgb(0,0,255)" />
	<rect x="83" y="51" width="20" height="27" fill="rgb(0,0,255)" />
	<polyline points="" fill="transparent" stroke-width="0.5" stroke="rgb(0,0,255)" />
	<polyline points="" fill="transparent" stroke-width="0.5" stroke="rgb(0,0,255)" />
	<rect x="0" y="81" width="63" height="8" fill="rgb(255,0,0)" />
	<rect x="63" y="81" width="20" height="8" fill="rgb(255,255,255)" />
	<rect x="63" y="51" width="20" height="30" fill="rgb(0,128,0)" />
	<rect x="0" y="51" width="63" height="30" fill="rgb(0,128,0)" />
	<polyline points="" fill="transparent" stroke-width="0.5" stroke="rgb(0,0,255)" />
	<polyline points="" fill="transparent" stroke-width="0.5" stroke="rgb(0,0,255)" />
	<polyline points="" fill="transparent" stroke-width="0.5" stroke="rgb(0,0,255)" />
	<polyline points="" fill="transparent" stroke-width="0.5" stroke="rgb(0,0,255)" />
	<rect x="117" y="100" width="15" height="31" fill="rgb(255,255,0)" />
	<rect x="132" y="100" width="16" height="31" fill="rgb(255,255,255)" />
	<rect x="132" y="74" width="16" height="26" fill="rgb(255,255,255)" />
	<rect x="117" y="74" width="15" height="26" fill="rgb(0,0,255)" />
	<polyline points="" fill="transparent" stroke-width="0.5" stroke="rgb(0,0,255)" />
	<polyline points="" fill="transparent" stroke-width="0.5" stroke="rgb(0,0,255)" />
	<rect x="148" y="103" width="4" height="28" fill="rgb(0,128,0)" />
	<rect x="152" y="103" width="14" height="28" fill="rgb(255,0,0)" />
	<rect x="152" y="74" width="14" height="29" fill="rgb(165,42,42)" />
	<rect x="148" y="74" width="4" height="29" fill="rgb(165,42,42)" />
	<polyline points="" fill="transparent" stroke-width="0.5" stroke="rgb(0,0,255)" />
	<polyline points="" fill="transparent" stroke-width="0.5" stroke="rgb(0,0,255)" />
	<rect x="148" y="70" width="5" height="4" fill="rgb(0,128,0)" />
	<rect x="153" y="70" width="13" height="4" fill="rgb(255,165,0)" />
	<rect x="153" y="51" width="13" height="19" fill="rgb(255,165,0)" />
	<rect x="148" y="51" width="5" height="19" fill="rgb(192,192,192)" />
	<polyline points="" fill="transparent" stroke-width="0.5" stroke="rgb(0,0,255)" />
	<polyline points="" fill="transparent" stroke-width="0.5" stroke="rgb(0,0,255)" />
	<rect x="117" y="68" width="9" height="6" fill="rgb(255,255,0)" />
	<rect x="126" y="68" width="22" height="6" fill="rgb(165,42,42)" />
	<rect x="126" y="51" width="22" height="17" fill="rgb(128,0,128)" />
	<rect x="117" y="51" width="9" height="17" fill="rgb(255,165,0)" />
	<polyline points="" fill="transparent" stroke-width="0.5" stroke="rgb(0,0,255)" />
	<polyline points="" fill="transparent" stroke-width="0.5" stroke="rgb(0,0,255)" />
	<polyline points="" fill="transparent" stroke-width="0.5" stroke="rgb(0,0,255)" />
	<polyline points="" fill="transparent" stroke-width="0.5" stroke="rgb(0,0,255)" />
	<rect x="117" y="44" width="13" height="7" fill="rgb(0,0,0)" />
	<rect x="130" y="44" width="19" height="7" fill="rgb(255,255,0)" />
	<rect x="130" y="37" width="19" height="7" fill="rgb(255,255,0)" />
	<rect x="117" y="37" width="13" height="7" fill="rgb(255,255,0)" />
	<polyline points="" fill="transparent" stroke-width="0.5" stroke="rgb(0,0,255)" />
	<polyline points="" fill="transparent" stroke-width="0.5" stroke="rgb(0,0,255)" />
	<rect x="149" y="41" width="10" height="10" fill="rgb(165,42,42)" />
	<rect x="159" y="41" width="7" height="10" fill="rgb(255,255,0)" />
	<rect x="159" y="37" width="7" height="4" fill="rgb(255,255,0)" />
	<rect x="149" y="37" width="10" height="4" fill="rgb(255,165,0)" />
	<polyline points="" fill="transparent" stroke-width="0.5" stroke="rgb(0,0,255)" />
	<polyline points="" fill="transparent" stroke-width="0.5" stroke="rgb(0,0,255)" />
	<rect x="149" y="17" width="7" height="20" fill="rgb(255,165,0)" />
	<rect x="156" y="17" width="10" height="20" fill="rgb(0,0,255)" />
	<rect x="156" y="0" width="10" height="17" fill="rgb(255,0,0)" />
	<rect x="149" y="0" width="7" height="17" fill="rgb(255,255,255)" />
	<polyline points="" fill="transparent" stroke-width="0.5" stroke="rgb(0,0,255)" />
	<polyline points="" fill="transparent" stroke-width="0.5" stroke="rgb(0,0,255)" />
	<rect x="117" y="13" width="22" height="24" fill="rgb(255,0,0)" />
	<rect x="139" y="13" width="10" height="24" fill="rgb(128,0,128)" />
	<rect x="139" y="0" width="10" height="13" fill="rgb(0,128,0)" />
	<rect x="117" y="0" width="22" height="13" fill="rgb(255,255,255)" />
	<polyline points="" fill="transparent" stroke-width="0.5" stroke="rgb(0,0,255)" />
	<polyline points="" fill="transparent" stroke-width="0.5" stroke="rgb(0,0,255)" />
	<polyline points="" fill="transparent" stroke-width="0.5" stroke="rgb(0,0,255)" />
	<polyline points="" fill="transparent" stroke-width="0.5" stroke="rgb(0,0,255)" />
	<rect x="0" y="29" width="42" height="22" fill="rgb(255,0,0)" />
	<rect x="42" y="29" width="15" height="22" fill="rgb(0,0,255)" />
	<rect x="42" y="13" width="15" height="16" fill="rgb(165,42,42)" />
	<rect x="0" y="13" width="42" height="16" fill="rgb(255,0,0)" />
	<polyline points="" fill="transparent" stroke-width="0.5" stroke="rgb(0,0,255)" />
	<polyline points="" fill="transparent" stroke-width="0.5" stroke="rgb(0,0,255)" />
	<rect x="57" y="28" width="18" height="23" fill="rgb(255,255,0)" />
	<rect x="75" y="28" width="42" height="23" fill="rgb(0,0,255)" />
	<rect x="75" y="13" width="42" height="15" fill="rgb(255,165,0)" />
	<rect x="57" y="13" width="18" height="15" fill="rgb(0,0,0)" />
	<polyline points="" fill="transparent" stroke-width="0.5" stroke="rgb(0,0,255)" />
	<polyline points="" fill="transparent" stroke-width="0.5" stroke="rgb(0,0,255)" />
	<rect x="57" y="4" width="32" height="9" fill="rgb(255,255,255)" />
	<rect x="89" y="4" width="28" height="9" fill="rgb(128,0,128)" />
	<rect x="89" y="0" width="28" height="4" fill="rgb(255,0,0)" />
	<rect x="57" y="0" width="32" height="4" fill="rgb(255,165,0)" />
	<polyline points="" fill="transparent" stroke-width="0.5" stroke="rgb(0,0,255)" />
	<polyline points="" fill="transparent" stroke-width="0.5" stroke="rgb(0,0,255)" />
	<rect x="0" y="6" width="28" height="7" fill="rgb(0,128,0)" />
	<rect x="28" y="6" width="29" height="7" fill="rgb(255,255,255)" />
	<rect x="28" y="0" width="29" height="6" fill="rgb(255,255,0)" />
	<rect x="0" y="0" width="28" height="6" fill="rgb(0,128,0)" />
	<polyline points="" fill="transparent" stroke-width="0.5" stroke="rgb(0,0,255)" />
	<polyline points="" fill="transparent" stroke-width="0.5" stroke="rgb(0,0,255)" />
</svg>
